<?xml version="1.0" standalone="no"?>
<!DOCTYPE svg PUBLIC "-//W3C//DTD SVG 20010904//EN"
 "http://www.w3.org/TR/2001/REC-SVG-20010904/DTD/svg10.dtd">
<svg version="1.0" xmlns="http://www.w3.org/2000/svg"
 width="403.000000pt" height="200.000000pt" viewBox="0 0 403.000000 200.000000"
 preserveAspectRatio="xMidYMid meet">

<g transform="translate(0.000000,200.000000) scale(0.100000,-0.100000)"
fill="#000000" stroke="none">
<path d="M2871 1918 c-623 -43 -1135 -77 -1138 -75 -2 3 8 24 22 46 26 39 27
42 11 66 -9 14 -20 25 -24 25 -31 -1 -279 -63 -297 -74 -11 -8 -33 -12 -47 -9
-32 6 -282 -44 -286 -58 -2 -5 -11 -18 -20 -30 l-17 -20 -26 20 -26 20 -141
-29 c-92 -19 -199 -33 -309 -40 -92 -6 -178 -13 -190 -16 -25 -5 -32 -39 -10
-47 6 -3 3 -6 -9 -6 -11 -1 -42 -12 -69 -26 -35 -17 -52 -21 -62 -14 -14 12
-138 -12 -157 -31 -7 -7 -3 -48 18 -148 51 -251 56 -271 75 -277 9 -3 102 13
207 35 104 22 257 54 339 71 83 17 166 38 185 48 73 37 100 124 64 209 -15 38
-59 81 -81 82 -17 0 -16 12 1 36 14 18 18 16 79 -44 63 -62 65 -66 81 -145 22
-109 26 -113 111 -94 97 22 99 25 76 128 -18 84 -18 86 1 135 24 62 38 77 38
42 0 -15 7 -34 16 -42 18 -19 11 -18 73 -5 46 9 53 8 83 -13 18 -13 34 -24 36
-24 2 -1 -11 -23 -27 -50 -35 -54 -38 -76 -15 -95 13 -11 38 -8 147 14 153 32
193 49 225 97 21 30 23 43 19 94 -4 38 -13 69 -27 88 -12 16 -20 31 -18 33 3
3 2180 155 2220 155 9 0 18 11 20 25 3 15 1 25 -6 24 -6 -1 -521 -37 -1145
-81z m-1135 7 c-3 -9 -23 -42 -45 -74 l-40 -59 45 -5 c26 -3 53 -13 63 -24 20
-21 41 -76 41 -105 0 -38 -30 -85 -66 -101 -45 -22 -266 -69 -275 -59 -8 8 63
121 83 134 7 4 9 8 3 9 -5 1 -14 3 -20 4 -5 2 -18 3 -27 4 -9 0 -29 12 -45 25
-26 22 -33 23 -75 14 -25 -6 -52 -8 -60 -5 -9 3 -20 34 -28 76 -7 39 -16 71
-19 71 -3 0 -25 -48 -49 -107 l-43 -108 17 -83 c10 -49 13 -87 8 -92 -5 -5
-32 -12 -60 -15 l-51 -7 -18 85 -18 85 -82 82 -83 82 -38 -58 c-21 -33 -42
-65 -48 -73 -9 -12 -7 -13 13 -8 33 8 83 -14 104 -47 10 -14 20 -45 23 -68 6
-51 -19 -99 -63 -121 -27 -14 -217 -57 -278 -63 -16 -1 -55 -10 -85 -18 -97
-27 -329 -73 -338 -67 -12 9 -84 363 -75 372 12 11 100 27 111 20 5 -3 13 -26
17 -51 l8 -45 9 35 c19 69 51 87 215 120 71 15 108 19 111 12 2 -7 17 -4 40 8
33 17 343 90 382 90 9 0 31 -13 50 -30 19 -16 38 -29 41 -30 4 0 14 20 23 44
18 47 24 50 121 66 28 5 70 13 94 20 55 14 69 9 73 -27 l3 -28 19 32 c24 38
64 57 176 82 109 25 144 26 136 6z"/>
<path d="M1610 1905 c-131 -28 -155 -39 -175 -81 -21 -45 -11 -100 26 -136 31
-32 72 -36 159 -17 35 7 55 8 62 1 13 -13 -11 -25 -84 -41 -52 -11 -59 -16
-89 -62 -17 -27 -29 -52 -27 -54 6 -7 208 35 233 47 47 24 65 50 65 96 0 92
-52 132 -147 113 -69 -14 -113 -14 -113 -1 0 14 30 27 82 35 43 6 49 12 82 62
20 31 35 57 34 58 -2 1 -50 -8 -108 -20z"/>
<path d="M1333 1848 c-48 -10 -47 -9 -29 -93 l12 -60 40 3 c21 2 43 7 47 12 9
8 -9 114 -22 136 -4 7 -20 7 -48 2z"/>
<path d="M1191 1817 c-46 -13 -52 -18 -77 -80 l-15 -39 -45 42 c-28 25 -51 39
-62 36 -9 -2 -32 -8 -51 -11 l-33 -7 81 -82 82 -82 17 -82 17 -83 30 6 c62 13
67 16 61 38 -3 12 -11 50 -17 83 -12 60 -11 64 26 155 20 52 39 100 42 107 6
14 2 14 -56 -1z"/>
<path d="M755 1726 c-55 -12 -114 -29 -131 -39 -43 -22 -59 -65 -46 -119 6
-23 10 -44 8 -45 -2 -2 -15 1 -30 7 -20 7 -47 6 -99 -5 -69 -14 -97 -10 -83
13 4 6 31 16 61 22 51 11 58 16 90 63 19 29 31 53 25 55 -10 4 -142 -23 -200
-40 -70 -21 -94 -60 -78 -131 13 -63 44 -87 112 -87 28 0 68 5 89 11 42 11 64
4 47 -16 -6 -7 -39 -18 -73 -25 -50 -9 -66 -17 -79 -38 -9 -15 -25 -41 -36
-58 l-20 -31 116 24 c120 25 159 40 182 68 16 20 16 95 0 125 -11 21 -11 22 6
14 17 -8 75 -8 181 -1 18 1 33 -2 34 -8 1 -9 -37 -22 -112 -39 -17 -4 -38 -24
-63 -61 -20 -30 -33 -55 -29 -55 23 0 232 49 248 58 56 29 73 98 41 160 -26
50 -52 57 -151 42 -47 -7 -88 -10 -93 -6 -12 12 28 35 73 41 23 4 46 10 51 13
10 7 74 100 74 108 0 6 0 5 -115 -20z"/>
<path d="M536 1615 c-20 -30 -36 -57 -36 -59 0 -2 15 -6 34 -8 l33 -4 -5 42
c-2 22 1 51 7 63 21 39 4 22 -33 -34z"/>
<path d="M1628 1653 c7 -3 16 -2 19 1 4 3 -2 6 -13 5 -11 0 -14 -3 -6 -6z"/>
<path d="M1578 1643 c7 -3 16 -2 19 1 4 3 -2 6 -13 5 -11 0 -14 -3 -6 -6z"/>
<path d="M157 1603 c-16 -3 -30 -10 -33 -17 -4 -10 46 -275 62 -329 5 -16 12
-17 47 -12 23 4 44 9 46 11 3 3 -21 126 -56 287 -9 37 -20 66 -27 66 -6 -1
-24 -4 -39 -6z"/>
<path d="M261 1468 c-1 -25 31 -171 39 -181 4 -4 22 17 41 48 22 36 40 55 54
56 11 1 -2 6 -30 11 -52 10 -82 29 -96 63 -6 17 -8 17 -8 3z"/>
<path d="M768 1473 c7 -3 16 -2 19 1 4 3 -2 6 -13 5 -11 0 -14 -3 -6 -6z"/>
<path d="M634 1454 c3 -9 6 -28 6 -42 0 -26 1 -26 25 10 14 20 25 39 25 42 0
4 -14 6 -31 6 -24 0 -30 -3 -25 -16z"/>
<path d="M718 1463 c7 -3 16 -2 19 1 4 3 -2 6 -13 5 -11 0 -14 -3 -6 -6z"/>
<path d="M3848 1743 c-34 -4 -54 -25 -330 -349 l-293 -344 -17 -72 c-9 -40
-15 -74 -14 -76 2 -1 90 4 197 12 107 8 196 13 198 10 2 -2 -15 -96 -39 -209
-23 -113 -40 -208 -37 -211 3 -3 48 -2 101 2 75 5 97 10 100 23 3 9 23 103 45
210 23 107 43 197 46 199 3 3 41 7 85 10 89 5 81 -4 105 110 23 112 27 105
-65 100 -55 -3 -80 -1 -80 6 0 10 99 491 115 564 5 20 2 22 -37 20 -24 -1 -60
-3 -80 -5z m-43 -369 c-30 -148 -58 -279 -62 -293 l-6 -24 87 7 c59 5 86 4 86
-4 0 -17 -47 -30 -114 -30 l-63 0 -44 -211 c-39 -187 -56 -237 -73 -218 -2 2
16 96 40 209 23 112 41 206 39 208 -2 3 -90 -1 -195 -8 -105 -7 -192 -11 -194
-9 -5 5 547 649 552 644 2 -2 -22 -124 -53 -271z"/>
<path d="M3586 1289 c-120 -138 -216 -252 -214 -254 5 -6 323 18 330 24 7 6
108 473 103 479 -1 1 -100 -111 -219 -249z m78 -87 l-17 -80 -61 -5 c-34 -2
-62 -3 -64 -2 -2 2 31 42 74 89 42 48 79 85 81 82 2 -2 -3 -40 -13 -84z"/>
<path d="M3023 1687 l-141 -10 -16 -71 c-9 -39 -19 -87 -22 -106 l-6 -35 76 3
c42 2 76 0 76 -5 0 -4 -47 -233 -105 -508 -57 -275 -102 -501 -100 -503 2 -2
48 -1 102 3 l99 7 128 612 c69 336 126 614 126 619 0 8 -19 8 -217 -6z m107
-99 c1 -28 -213 -1034 -221 -1042 -5 -5 -12 -7 -16 -3 -5 6 181 931 204 1011
5 18 0 18 -71 14 -58 -4 -76 -2 -76 8 0 16 26 21 113 23 47 1 67 -3 67 -11z"/>
<path d="M1860 174 c-971 -67 -1784 -123 -1806 -123 -36 -1 -42 -4 -46 -25 -5
-24 -3 -25 41 -20 25 2 179 13 341 24 558 38 3215 220 3245 222 23 2 31 9 33
26 3 18 -1 22 -20 21 -13 -1 -817 -57 -1788 -125z"/>
</g>
</svg>
